<mxfile host="app.diagrams.net" modified="2024-01-21T08:35:01.179Z" agent="Mozilla/5.0 (Windows NT 10.0; Win64; x64; rv:121.0) Gecko/20100101 Firefox/121.0" version="22.1.20" etag="QgEoEQGNYPW63IZtC_pu" type="github">
  <diagram name="Page-1" id="U4XxVE_lrhoj7tFZ85Eu">
    <mxGraphModel>
      <root>
        <mxCell id="0" />
        <mxCell id="1" parent="0" />
      </root>
    </mxGraphModel>
  </diagram>
</mxfile>
